<svg width="34" height="34" viewBox="0 0 34 34" fill="none" xmlns="http://www.w3.org/2000/svg">
<path d="M17 0.333313C7.80004 0.333313 0.333374 7.79998 0.333374 17C0.333374 26.2 7.80004 33.6666 17 33.6666C26.2 33.6666 33.6667 26.2 33.6667 17C33.6667 7.79998 26.2 0.333313 17 0.333313ZM17 5.33331C19.7667 5.33331 22 7.56665 22 10.3333C22 13.1 19.7667 15.3333 17 15.3333C14.2334 15.3333 12 13.1 12 10.3333C12 7.56665 14.2334 5.33331 17 5.33331ZM17 29C12.8334 29 9.15004 26.8666 7.00004 23.6333C7.05004 20.3166 13.6667 18.5 17 18.5C20.3167 18.5 26.95 20.3166 27 23.6333C24.85 26.8666 21.1667 29 17 29Z" fill="#ECECEC"/>
</svg>
